<mxfile host="app.diagrams.net" modified="2024-07-22T20:49:04.934Z" agent="Mozilla/5.0 (Macintosh; Intel Mac OS X 10_15_7) AppleWebKit/537.36 (KHTML, like Gecko) Chrome/126.0.0.0 Safari/537.36" version="24.7.3" etag="p8im417Wu5v5EaHoKJ49" type="github">
  <diagram name="Page-1" id="8Y3eKZxEwKXlyuII_QPl">
    <mxGraphModel>
      <root>
        <mxCell id="0" />
        <mxCell id="1" parent="0" />
      </root>
    </mxGraphModel>
  </diagram>
</mxfile>
